<svg aria-hidden="true" style="position: absolute; width: 0; height: 0; overflow: hidden;" version="1.1" xmlns="http://www.w3.org/2000/svg" xmlns:xlink="http://www.w3.org/1999/xlink">
<defs>
<symbol id="icon-menu-burger" viewBox="0 0 32 32">
<path d="M46 14h-44c-1.105 0-2 0.895-2 2s0.895 2 2 2h44c1.105 0 2-0.895 2-2s-0.895-2-2-2z"></path>
<path d="M46 0h-44c-1.105 0-2 0.895-2 2s0.895 2 2 2h44c1.105 0 2-0.895 2-2s-0.895-2-2-2z"></path>
<path d="M46 28h-44c-1.105 0-2 0.895-2 2s0.895 2 2 2h44c1.105 0 2-0.895 2-2s-0.895-2-2-2z"></path>
</symbol>
<symbol id="icon-browser" viewBox="0 0 32 32">
<path d="M24.727 2.286h-17.455c-1.653 0.002-3.237 0.659-4.406 1.828s-1.826 2.753-1.828 4.406v14.961c0.002 1.653 0.659 3.237 1.828 4.406s2.753 1.826 4.406 1.828h17.455c1.653-0.002 3.237-0.659 4.406-1.828s1.826-2.753 1.828-4.406v-14.961c-0.002-1.653-0.659-3.237-1.828-4.406s-2.753-1.826-4.406-1.828zM7.273 4.779h17.455c0.992 0 1.943 0.394 2.645 1.095s1.095 1.653 1.095 2.645v1.247h-24.935v-1.247c0-0.992 0.394-1.943 1.095-2.645s1.653-1.095 2.645-1.095zM24.727 27.221h-17.455c-0.992 0-1.943-0.394-2.645-1.096s-1.095-1.653-1.095-2.645v-11.221h24.935v11.221c0 0.992-0.394 1.943-1.095 2.645s-1.653 1.096-2.645 1.096zM24.727 17.247c0 0.331-0.131 0.648-0.365 0.882s-0.551 0.365-0.882 0.365h-14.961c-0.331 0-0.648-0.131-0.882-0.365s-0.365-0.551-0.365-0.882c0-0.331 0.131-0.648 0.365-0.882s0.551-0.365 0.882-0.365h14.961c0.331 0 0.648 0.131 0.882 0.365s0.365 0.551 0.365 0.882zM19.74 22.234c0 0.331-0.131 0.648-0.365 0.882s-0.551 0.365-0.882 0.365h-9.974c-0.331 0-0.648-0.131-0.882-0.365s-0.365-0.551-0.365-0.882c0-0.331 0.131-0.648 0.365-0.881s0.551-0.365 0.882-0.365h9.974c0.331 0 0.648 0.131 0.882 0.365s0.365 0.551 0.365 0.881zM4.779 7.273c0-0.247 0.073-0.488 0.21-0.693s0.332-0.365 0.56-0.459c0.228-0.094 0.479-0.119 0.72-0.071s0.464 0.167 0.638 0.341c0.174 0.174 0.293 0.396 0.341 0.638s0.023 0.493-0.071 0.72c-0.094 0.228-0.254 0.423-0.459 0.56s-0.446 0.21-0.693 0.21c-0.331 0-0.648-0.131-0.882-0.365s-0.365-0.551-0.365-0.882zM8.52 7.273c0-0.247 0.073-0.488 0.21-0.693s0.332-0.365 0.56-0.459c0.228-0.094 0.479-0.119 0.72-0.071s0.464 0.167 0.638 0.341c0.174 0.174 0.293 0.396 0.341 0.638s0.023 0.493-0.071 0.72c-0.094 0.228-0.254 0.423-0.459 0.56s-0.446 0.21-0.693 0.21c-0.331 0-0.648-0.131-0.882-0.365s-0.365-0.551-0.365-0.882zM12.26 7.273c0-0.247 0.073-0.488 0.21-0.693s0.332-0.365 0.559-0.459c0.228-0.094 0.479-0.119 0.72-0.071s0.464 0.167 0.638 0.341 0.293 0.396 0.341 0.638c0.048 0.242 0.023 0.493-0.071 0.72s-0.254 0.423-0.459 0.56-0.446 0.21-0.693 0.21c-0.331 0-0.648-0.131-0.882-0.365s-0.365-0.551-0.365-0.882z"></path>
</symbol>
<symbol id="icon-brush" viewBox="0 0 32 32">
<path d="M25.333 0h-18.667c-1.767 0.002-3.462 0.705-4.712 1.955s-1.953 2.944-1.955 4.712v6.667c0.003 2.474 0.988 4.847 2.737 6.596s4.122 2.734 6.596 2.737h2.667v5.333c0 1.061 0.421 2.078 1.172 2.828s1.768 1.172 2.828 1.172c1.061 0 2.078-0.421 2.828-1.172s1.172-1.768 1.172-2.828v-5.333h2.667c2.474-0.003 4.847-0.987 6.596-2.737s2.734-4.122 2.737-6.596v-6.667c-0.002-1.767-0.705-3.462-1.955-4.712s-2.944-1.953-4.712-1.955v0zM2.667 6.667c0-1.061 0.421-2.078 1.172-2.828s1.768-1.172 2.828-1.172h6.667v1.333c0 0.354 0.141 0.693 0.391 0.943s0.589 0.391 0.943 0.391c0.354 0 0.693-0.14 0.943-0.391s0.391-0.589 0.391-0.943v-1.333h2.667v4c0 0.354 0.141 0.693 0.391 0.943s0.589 0.391 0.943 0.391c0.354 0 0.693-0.14 0.943-0.391s0.391-0.589 0.391-0.943v-4h2.667v6.667c0 0.354 0.141 0.693 0.391 0.943s0.589 0.391 0.943 0.391c0.354 0 0.693-0.14 0.943-0.391s0.391-0.589 0.391-0.943v-6.421c0.777 0.275 1.451 0.783 1.928 1.455s0.735 1.475 0.739 2.3v6.667h-26.667v-6.667zM22.667 20h-4c-0.354 0-0.693 0.141-0.943 0.391s-0.391 0.589-0.391 0.943v6.667c0 0.354-0.141 0.693-0.391 0.943s-0.589 0.391-0.943 0.391c-0.354 0-0.693-0.141-0.943-0.391s-0.391-0.589-0.391-0.943v-6.667c0-0.354-0.141-0.693-0.391-0.943s-0.589-0.391-0.943-0.391h-4c-1.296-0.002-2.563-0.381-3.646-1.091s-1.937-1.721-2.455-2.909h25.536c-0.518 1.187-1.371 2.198-2.455 2.909s-2.351 1.090-3.646 1.091z"></path>
</symbol>
<symbol id="icon-search" viewBox="0 0 32 32">
<path d="M30.206 28.883l-7.455-7.455c2.032-2.485 3.030-5.655 2.79-8.856s-1.702-6.186-4.082-8.339c-2.38-2.153-5.497-3.309-8.705-3.229s-6.264 1.391-8.533 3.66c-2.269 2.269-3.58 5.324-3.66 8.533s1.076 6.325 3.229 8.705c2.153 2.38 5.139 3.841 8.339 4.082s6.371-0.758 8.856-2.79l7.455 7.455c0.236 0.228 0.551 0.353 0.879 0.351s0.641-0.134 0.872-0.366 0.363-0.545 0.366-0.872c0.003-0.327-0.123-0.643-0.351-0.878zM13.087 23.522c-1.976 0-3.908-0.586-5.551-1.684s-2.924-2.658-3.68-4.484-0.954-3.835-0.569-5.773c0.386-1.938 1.337-3.719 2.735-5.116s3.178-2.349 5.116-2.735c1.938-0.386 3.947-0.188 5.773 0.569s3.386 2.037 4.484 3.68c1.098 1.643 1.684 3.575 1.684 5.551-0.003 2.649-1.057 5.189-2.93 7.062s-4.413 2.927-7.062 2.93z"></path>
</symbol>
<symbol id="icon-logo-image" viewBox="0 0 32 32">
<path fill="#0f1138" style="fill: var(--color1, #0f1138)" d="M30.139 0.033c-0.009 0.002-0.018 0.005-0.027 0.007-0.002 0.001-0.005 0.001-0.007 0.002l-29.459 9.142c-0.383 0.119-0.645 0.473-0.645 0.875s0.26 0.757 0.643 0.877l11.359 3.566-2.146 5.756c-0.125 0.336-0.043 0.715 0.211 0.969s0.633 0.336 0.969 0.211l5.756-2.146 3.567 11.359c0.12 0.382 0.474 0.643 0.875 0.643 0 0 0.001 0 0.002 0 0.401-0.001 0.756-0.262 0.875-0.645l9.142-29.46c0.001-0.002 0.001-0.005 0.002-0.007 0.003-0.009 0.005-0.018 0.007-0.026 0.185-0.687-0.446-1.306-1.123-1.124zM3.996 10.065l21.652-6.719-12.625 9.554-9.027-2.834zM12.276 19.018l1.689-4.531 11.683-8.84-8.841 11.683-4.531 1.689zM21.229 27.299l-2.834-9.027 9.554-12.625-6.719 21.652z"></path>
<path fill="#1a75e8" style="fill: var(--color2, #1a75e8)" d="M7.289 18.817c-0.358-0.358-0.939-0.358-1.297 0l-5.504 5.504c-0.358 0.358-0.358 0.939 0 1.297s0.939 0.358 1.297 0l5.504-5.504c0.358-0.358 0.358-0.939 0-1.297z"></path>
<path fill="#1a75e8" style="fill: var(--color2, #1a75e8)" d="M12.478 24.006c-0.358-0.358-0.939-0.358-1.297 0l-5.504 5.504c-0.358 0.358-0.358 0.939 0 1.297s0.939 0.358 1.297 0l5.504-5.504c0.358-0.358 0.358-0.939 0-1.297z"></path>
<path fill="#1a75e8" style="fill: var(--color2, #1a75e8)" d="M8.049 23.246c-0.358-0.358-0.939-0.358-1.297 0l-6.483 6.483c-0.358 0.358-0.358 0.939 0 1.297s0.939 0.358 1.297 0l6.483-6.483c0.358-0.358 0.358-0.939 0-1.297z"></path>
</symbol>
<symbol id="icon-Vector-1" viewBox="0 0 32 32">
<path d="M25.333 1.067h-18.667c-1.767 0.002-3.462 0.705-4.712 1.955s-1.953 2.944-1.955 4.712v16c0.002 1.767 0.705 3.462 1.955 4.712s2.944 1.953 4.712 1.955h18.667c1.767-0.002 3.462-0.705 4.712-1.955s1.953-2.944 1.955-4.712v-16c-0.002-1.767-0.705-3.462-1.955-4.712s-2.944-1.953-4.712-1.955zM6.667 3.733h18.667c0.798 0.002 1.578 0.242 2.239 0.69s1.172 1.084 1.468 1.826l-10.211 10.212c-0.751 0.748-1.769 1.169-2.829 1.169s-2.078-0.42-2.829-1.169l-10.211-10.212c0.296-0.741 0.808-1.377 1.468-1.826s1.44-0.689 2.239-0.69zM25.333 27.733h-18.667c-1.061 0-2.078-0.421-2.828-1.172s-1.172-1.767-1.172-2.828v-14l8.619 8.613c1.252 1.248 2.947 1.949 4.715 1.949s3.463-0.701 4.715-1.949l8.619-8.613v14c0 1.061-0.421 2.078-1.172 2.828s-1.767 1.172-2.828 1.172z"></path>
</symbol>
<symbol id="icon-logo-company" viewBox="0 0 32 32">
<path d="M31.84 16c0 8.748-7.092 15.84-15.84 15.84s-15.84-7.092-15.84-15.84c0-8.748 7.092-15.84 15.84-15.84s15.84 7.092 15.84 15.84z"></path>
</symbol>
<symbol id="icon-school-1" viewBox="0 0 32 32">
<path d="M25.333 8.002h-6.239c-0.531-0.379-1.129-0.655-1.761-0.816v-0.517l4.707-2.203c0.193-0.12 0.352-0.286 0.463-0.485s0.168-0.422 0.168-0.649-0.058-0.45-0.168-0.649c-0.11-0.198-0.27-0.365-0.463-0.485l-4.267-2c-0.333-0.156-0.7-0.225-1.067-0.201s-0.722 0.141-1.032 0.338c-0.31 0.198-0.565 0.471-0.741 0.794s-0.268 0.685-0.267 1.052v5.003c-0.632 0.16-1.229 0.437-1.76 0.816h-6.24c-1.767 0.002-3.462 0.705-4.712 1.955s-1.953 2.944-1.955 4.712v13.333c0 1.061 0.421 2.078 1.172 2.828s1.768 1.172 2.828 1.172h24c1.061 0 2.078-0.421 2.828-1.172s1.172-1.768 1.172-2.828v-13.333c-0.002-1.768-0.705-3.462-1.955-4.712s-2.944-1.953-4.712-1.955zM29.088 13.336h-2.879c-1.060-0.003-2.077-0.424-2.828-1.172l-1.496-1.495h3.448c0.824 0.003 1.627 0.261 2.3 0.739s1.18 1.151 1.455 1.928zM6.667 10.669h3.448l-1.496 1.495c-0.751 0.748-1.768 1.169-2.828 1.172h-2.879c0.275-0.777 0.783-1.451 1.455-1.928s1.475-0.735 2.3-0.739zM17.333 29.336h-2.667v-4c0-0.354 0.141-0.693 0.391-0.943s0.589-0.39 0.943-0.39 0.693 0.14 0.943 0.39c0.25 0.25 0.391 0.589 0.391 0.943v4zM28 29.336h-8v-4c0-1.061-0.421-2.078-1.172-2.829s-1.768-1.171-2.828-1.171c-1.061 0-2.078 0.421-2.828 1.171s-1.172 1.768-1.172 2.829v4h-8c-0.354 0-0.693-0.141-0.943-0.391s-0.391-0.589-0.391-0.943v-12h3.124c0.876 0.002 1.743-0.169 2.552-0.505s1.544-0.828 2.161-1.449l3.611-3.609c0.5-0.5 1.178-0.781 1.885-0.781s1.385 0.281 1.885 0.781l3.611 3.609c0.617 0.621 1.352 1.113 2.161 1.449s1.677 0.507 2.552 0.505h3.124v12c0 0.354-0.141 0.693-0.391 0.943s-0.589 0.391-0.943 0.391zM9.333 20.002c0 0.354-0.14 0.693-0.391 0.943s-0.589 0.391-0.943 0.391h-1.333c-0.354 0-0.693-0.141-0.943-0.391s-0.391-0.589-0.391-0.943c0-0.354 0.14-0.693 0.391-0.943s0.589-0.39 0.943-0.39h1.333c0.354 0 0.693 0.14 0.943 0.39s0.391 0.589 0.391 0.943zM9.333 25.336c0 0.354-0.14 0.693-0.391 0.943s-0.589 0.391-0.943 0.391h-1.333c-0.354 0-0.693-0.141-0.943-0.391s-0.391-0.589-0.391-0.943c0-0.354 0.14-0.693 0.391-0.943s0.589-0.39 0.943-0.39h1.333c0.354 0 0.693 0.14 0.943 0.39s0.391 0.589 0.391 0.943zM26.667 20.002c0 0.354-0.141 0.693-0.391 0.943s-0.589 0.391-0.943 0.391h-1.333c-0.354 0-0.693-0.141-0.943-0.391s-0.391-0.589-0.391-0.943c0-0.354 0.141-0.693 0.391-0.943s0.589-0.39 0.943-0.39h1.333c0.354 0 0.693 0.14 0.943 0.39s0.391 0.589 0.391 0.943zM26.667 25.336c0 0.354-0.141 0.693-0.391 0.943s-0.589 0.391-0.943 0.391h-1.333c-0.354 0-0.693-0.141-0.943-0.391s-0.391-0.589-0.391-0.943c0-0.354 0.141-0.693 0.391-0.943s0.589-0.39 0.943-0.39h1.333c0.354 0 0.693 0.14 0.943 0.39s0.391 0.589 0.391 0.943zM18.667 16.002c0 0.527-0.156 1.043-0.449 1.481s-0.709 0.78-1.197 0.982c-0.487 0.202-1.023 0.255-1.541 0.152s-0.992-0.357-1.365-0.73-0.627-0.848-0.73-1.365c-0.103-0.517-0.050-1.053 0.152-1.541s0.544-0.904 0.982-1.197c0.439-0.293 0.954-0.449 1.481-0.449 0.707 0 1.385 0.281 1.886 0.781s0.781 1.178 0.781 1.886z"></path>
</symbol>
<symbol id="icon-camera-1" viewBox="0 0 32 32">
<path d="M30.533 11.942c-0.441-0.224-0.937-0.319-1.43-0.276s-0.964 0.224-1.36 0.521l-2.444 1.815c-0.167-1.644-0.938-3.167-2.163-4.275s-2.818-1.723-4.47-1.725h-0.113l-5.496-5.495c-0.37-0.373-0.811-0.668-1.296-0.87s-1.006-0.304-1.532-0.302h-8.896c-0.354 0-0.693 0.14-0.943 0.391s-0.391 0.589-0.391 0.943c0 0.354 0.14 0.693 0.391 0.943s0.589 0.391 0.943 0.391h8.896c0.353 0.001 0.692 0.141 0.943 0.391l3.609 3.609h-8.115c-1.767 0.002-3.462 0.705-4.712 1.955s-1.953 2.944-1.955 4.712v10.667c0.002 1.767 0.705 3.462 1.955 4.712s2.944 1.953 4.712 1.955h12c1.652-0.002 3.245-0.617 4.47-1.725s1.996-2.631 2.163-4.275l2.44 1.819c0.396 0.297 0.867 0.478 1.361 0.523s0.989-0.049 1.432-0.271 0.815-0.562 1.076-0.983c0.26-0.421 0.398-0.907 0.398-1.402v-11.361c0.002-0.495-0.135-0.981-0.396-1.403s-0.634-0.761-1.077-0.981zM22.667 25.336c0 1.061-0.421 2.078-1.172 2.828s-1.768 1.172-2.828 1.172h-12c-1.061 0-2.078-0.421-2.828-1.172s-1.172-1.767-1.172-2.828v-10.667c0-1.061 0.421-2.078 1.172-2.828s1.768-1.172 2.828-1.172h12c1.061 0 2.078 0.421 2.828 1.172s1.172 1.768 1.172 2.828v10.667zM29.333 25.678l-4-2.981v-5.389l4-2.981v11.352z"></path>
</symbol>
<symbol id="icon-fingerprint" viewBox="0 0 32 32">
<path d="M8.62 29.713c-0.291-0-0.575-0.096-0.807-0.272s-0.4-0.424-0.478-0.705-0.062-0.579 0.046-0.85c0.108-0.271 0.302-0.499 0.551-0.649 4.724-2.837 4.724-8.931 4.724-12.571 0-1.061 0.421-2.078 1.172-2.829s1.768-1.172 2.828-1.172c1.061 0 2.078 0.421 2.829 1.172s1.171 1.768 1.171 2.829c0 0.354-0.14 0.693-0.391 0.943s-0.589 0.391-0.943 0.391c-0.354 0-0.693-0.141-0.943-0.391s-0.391-0.589-0.391-0.943c0-0.354-0.14-0.693-0.391-0.943s-0.589-0.39-0.943-0.39c-0.354 0-0.693 0.14-0.943 0.39s-0.391 0.589-0.391 0.943c0 3.929 0 11.245-6.019 14.857-0.207 0.124-0.444 0.189-0.685 0.189zM15.237 31.608c3.043-3.067 4.82-7.379 5.281-12.828 0.016-0.175-0.003-0.351-0.056-0.518s-0.138-0.323-0.251-0.457c-0.113-0.134-0.251-0.245-0.407-0.326s-0.326-0.13-0.501-0.145c-0.175-0.018-0.352-0.001-0.52 0.051s-0.324 0.137-0.459 0.25c-0.135 0.113-0.245 0.253-0.324 0.409s-0.127 0.328-0.139 0.504c-0.415 4.876-1.892 8.533-4.517 11.175-0.249 0.251-0.389 0.591-0.388 0.944s0.143 0.693 0.394 0.942c0.251 0.249 0.591 0.389 0.944 0.388s0.693-0.143 0.942-0.394v0.005zM22.171 31.36c0.809-1.344 1.482-2.765 2.011-4.241 0.111-0.33 0.087-0.691-0.064-1.004s-0.42-0.555-0.748-0.673c-0.328-0.118-0.689-0.103-1.005 0.041s-0.565 0.407-0.69 0.732c-0.469 1.309-1.067 2.569-1.784 3.761-0.091 0.15-0.151 0.316-0.178 0.489s-0.019 0.35 0.023 0.52c0.042 0.17 0.117 0.331 0.22 0.472s0.234 0.261 0.384 0.352c0.303 0.183 0.666 0.239 1.009 0.155 0.17-0.042 0.33-0.117 0.472-0.22s0.261-0.234 0.352-0.384zM25.324 22.921c0.494-2.723 0.717-5.488 0.667-8.255-0.001-1.889-0.576-3.733-1.647-5.289s-2.59-2.749-4.354-3.424c-1.765-0.674-3.692-0.797-5.528-0.353s-3.494 1.436-4.754 2.842c-0.123 0.129-0.218 0.282-0.281 0.449s-0.091 0.345-0.084 0.523c0.007 0.178 0.050 0.353 0.126 0.514s0.184 0.306 0.316 0.425c0.133 0.119 0.288 0.21 0.457 0.268s0.347 0.081 0.525 0.069c0.178-0.012 0.352-0.060 0.511-0.141s0.3-0.192 0.415-0.329c0.9-1.005 2.084-1.713 3.396-2.031s2.688-0.23 3.949 0.252 2.345 1.334 3.111 2.445c0.765 1.111 1.176 2.428 1.177 3.778 0.049 2.596-0.157 5.19-0.616 7.745-0.067 0.347 0.006 0.706 0.203 0.999s0.503 0.496 0.85 0.563c0.085 0.017 0.171 0.025 0.257 0.025 0.309-0.001 0.608-0.109 0.846-0.306s0.4-0.47 0.459-0.773zM9.991 14.667c-0-0.372 0.030-0.744 0.092-1.111 0.040-0.177 0.043-0.36 0.010-0.538s-0.102-0.347-0.203-0.498c-0.101-0.15-0.231-0.279-0.383-0.377s-0.323-0.165-0.501-0.195c-0.179-0.030-0.361-0.024-0.537 0.019s-0.341 0.121-0.486 0.23c-0.145 0.109-0.266 0.246-0.356 0.403s-0.147 0.331-0.168 0.511c-0.088 0.514-0.133 1.034-0.133 1.556 0 6.193-1.795 9.333-5.333 9.333-0.354 0-0.693 0.14-0.943 0.39s-0.391 0.589-0.391 0.943c0 0.354 0.14 0.693 0.391 0.943s0.589 0.391 0.943 0.391c5.159 0 8-4.267 8-12zM28.257 31.219c2.194-5.235 3.24-10.879 3.067-16.552 0.006-2.215-0.496-4.402-1.467-6.392-0.077-0.158-0.183-0.299-0.315-0.415s-0.284-0.206-0.449-0.263c-0.166-0.057-0.341-0.081-0.516-0.071s-0.346 0.055-0.504 0.132c-0.157 0.077-0.299 0.184-0.415 0.315s-0.206 0.284-0.263 0.449c-0.057 0.166-0.081 0.341-0.071 0.516s0.055 0.346 0.132 0.504c0.793 1.627 1.204 3.415 1.2 5.225 0.168 5.292-0.795 10.558-2.825 15.448-0.072 0.16-0.112 0.332-0.118 0.507s0.023 0.35 0.085 0.514c0.062 0.164 0.156 0.314 0.276 0.442s0.264 0.231 0.424 0.303c0.173 0.079 0.361 0.12 0.551 0.12 0.255-0.001 0.504-0.075 0.719-0.214s0.384-0.335 0.489-0.567zM4.657 18.667v-4c0.004-3.182 1.269-6.232 3.519-8.481s5.3-3.515 8.481-3.519c2.598-0.009 5.127 0.834 7.2 2.4 0.283 0.212 0.639 0.303 0.989 0.253s0.666-0.237 0.878-0.52c0.212-0.283 0.303-0.638 0.253-0.989s-0.237-0.666-0.52-0.878c-2.534-1.913-5.625-2.943-8.8-2.933-3.888 0.005-7.616 1.551-10.366 4.301s-4.296 6.477-4.301 10.366v4c0 0.354 0.14 0.693 0.391 0.943s0.589 0.391 0.943 0.391 0.693-0.141 0.943-0.391c0.25-0.25 0.391-0.589 0.391-0.943z"></path>
</symbol>
<symbol id="icon-edit-1" viewBox="0 0 32 32">
<path d="M24.875 1.24l-16.256 16.256c-0.621 0.618-1.113 1.352-1.448 2.161s-0.506 1.676-0.504 2.552v1.791c0 0.354 0.14 0.693 0.391 0.943s0.589 0.391 0.943 0.391h1.791c0.876 0.003 1.743-0.169 2.552-0.504s1.544-0.827 2.161-1.448l16.256-16.256c0.779-0.781 1.217-1.839 1.217-2.943s-0.438-2.162-1.217-2.943c-0.792-0.757-1.846-1.18-2.943-1.18s-2.15 0.423-2.943 1.18zM28.875 5.24l-16.256 16.256c-0.752 0.747-1.768 1.168-2.828 1.171h-0.457v-0.457c0.003-1.060 0.423-2.076 1.171-2.828l16.256-16.256c0.285-0.272 0.663-0.424 1.057-0.424s0.773 0.152 1.057 0.424c0.28 0.281 0.437 0.661 0.437 1.057s-0.157 0.777-0.437 1.057z"></path>
<path d="M30.667 11.972c-0.354 0-0.693 0.14-0.943 0.391s-0.391 0.589-0.391 0.943v6.695h-5.333c-1.061 0-2.078 0.421-2.828 1.172s-1.172 1.768-1.172 2.828v5.333h-13.333c-1.061 0-2.078-0.421-2.828-1.172s-1.172-1.768-1.172-2.828v-18.667c0-1.061 0.421-2.078 1.172-2.828s1.768-1.172 2.828-1.172h12.056c0.354 0 0.693-0.14 0.943-0.391s0.391-0.589 0.391-0.943c0-0.354-0.141-0.693-0.391-0.943s-0.589-0.391-0.943-0.391h-12.056c-1.767 0.002-3.462 0.705-4.712 1.955s-1.953 2.944-1.955 4.712v18.667c0.002 1.767 0.705 3.462 1.955 4.712s2.944 1.953 4.712 1.955h15.124c0.876 0.003 1.744-0.169 2.553-0.504s1.544-0.827 2.162-1.448l3.541-3.544c0.621-0.617 1.113-1.352 1.449-2.161s0.507-1.677 0.505-2.552v-8.485c0-0.354-0.141-0.693-0.391-0.943s-0.589-0.391-0.943-0.391zM24.62 28.163c-0.536 0.535-1.214 0.905-1.953 1.067v-5.229c0-0.354 0.141-0.693 0.391-0.943s0.589-0.391 0.943-0.391h5.233c-0.165 0.738-0.535 1.415-1.067 1.952l-3.547 3.544z"></path>
</symbol>
</defs>
</svg>
